<svg width="347" height="57" viewBox="0 0 347 57" fill="none" xmlns="http://www.w3.org/2000/svg">
<path d="M83.5 1H1V25.5H23.5C23.5 17 28 12 35 11.5H83.5V1Z" stroke="#C99128" stroke-width="2"/>
<path d="M23.5 29H1V53H83.5V42H35C28.5 40.5 25.1591 37.4673 23.5 29Z" stroke="#C99128" stroke-width="2"/>
<circle cx="38" cy="27" r="11" stroke="#C99128" stroke-width="2"/>
<path d="M95 34V20.8H105.96V24.22H99.66V25.86H104.74V29.02H99.66V30.58H106.2V34H95ZM121.44 20.8V34H116.4L113.24 28L112.52 26.38H112.48L112.56 29.1V34H108.52V20.8H113.56L116.72 26.82L117.44 28.42H117.48L117.4 25.7V20.8H121.44ZM136.841 29.96C136.601 30.9867 136.188 31.8133 135.601 32.44C135.028 33.0667 134.328 33.52 133.501 33.8C132.675 34.0667 131.755 34.2 130.741 34.2C129.355 34.2 128.155 33.9333 127.141 33.4C126.141 32.8667 125.368 32.0933 124.821 31.08C124.288 30.0667 124.021 28.84 124.021 27.4C124.021 25.96 124.288 24.7333 124.821 23.72C125.368 22.7067 126.141 21.9333 127.141 21.4C128.155 20.8667 129.355 20.6 130.741 20.6C131.715 20.6 132.621 20.74 133.461 21.02C134.301 21.2867 135.008 21.7133 135.581 22.3C136.168 22.8867 136.555 23.6533 136.741 24.6L132.741 26.16C132.635 25.2933 132.415 24.7333 132.081 24.48C131.761 24.2267 131.355 24.1 130.861 24.1C130.408 24.1 130.021 24.22 129.701 24.46C129.395 24.6867 129.161 25.0467 129.001 25.54C128.855 26.02 128.781 26.64 128.781 27.4C128.781 28.1467 128.848 28.7667 128.981 29.26C129.128 29.7533 129.361 30.12 129.681 30.36C130.001 30.5867 130.428 30.7 130.961 30.7C131.441 30.7 131.835 30.56 132.141 30.28C132.448 29.9867 132.641 29.5267 132.721 28.9L136.841 29.96ZM143.637 20.8V34H138.977V20.8H143.637ZM146.637 34V20.8H154.197C155.863 20.8133 157.103 21.1133 157.917 21.7C158.73 22.2733 159.137 23.1467 159.137 24.32C159.137 25.1067 158.897 25.7733 158.417 26.32C157.937 26.8667 157.183 27.2133 156.157 27.36V27.38C157.303 27.5 158.143 27.84 158.677 28.4C159.21 28.96 159.477 29.6667 159.477 30.52C159.477 31.68 159.083 32.5533 158.297 33.14C157.523 33.7133 156.33 34 154.717 34H146.637ZM151.097 30.96H153.477C153.89 30.96 154.197 30.88 154.397 30.72C154.61 30.5467 154.717 30.3 154.717 29.98C154.717 29.6733 154.61 29.44 154.397 29.28C154.197 29.12 153.89 29.04 153.477 29.04H151.097V30.96ZM151.097 25.92H153.177C153.977 25.92 154.377 25.6 154.377 24.96C154.377 24.32 153.977 24 153.177 24H151.097V25.92ZM168.879 20.8C170.599 20.8 171.919 21.1867 172.839 21.96C173.759 22.72 174.219 23.7333 174.219 25C174.219 26.4533 173.765 27.5467 172.859 28.28C171.965 29.0133 170.659 29.38 168.939 29.38L168.479 29.62H166.279V34H161.719V20.8H168.879ZM168.079 26.56C168.572 26.56 168.939 26.4733 169.179 26.3C169.432 26.1133 169.559 25.7933 169.559 25.34C169.559 24.9 169.432 24.5867 169.179 24.4C168.939 24.2133 168.572 24.12 168.079 24.12H166.279V26.56H168.079ZM170.839 27.54L174.959 34H169.899L166.819 28.22L170.839 27.54ZM189.8 34H185.04L184.44 31.48H180.88L180.26 34H175.62L179.9 20.8H185.5L189.8 34ZM181.58 28.58H183.76L182.68 24L181.58 28.58ZM203.194 20.6C204.461 20.6 205.594 20.76 206.594 21.08C207.607 21.3867 208.501 21.8533 209.274 22.48L207.394 25.48C206.767 25.04 206.107 24.6867 205.414 24.42C204.734 24.1533 203.994 24.02 203.194 24.02C202.847 24.02 202.567 24.0467 202.354 24.1C202.154 24.1533 202.007 24.2267 201.914 24.32C201.834 24.4133 201.794 24.52 201.794 24.64C201.794 24.8 201.914 24.92 202.154 25C202.407 25.08 202.721 25.1667 203.094 25.26L204.914 25.68C206.261 25.9867 207.274 26.44 207.954 27.04C208.647 27.64 208.994 28.4733 208.994 29.54C208.994 30.6067 208.734 31.4867 208.214 32.18C207.694 32.86 206.987 33.3667 206.094 33.7C205.214 34.0333 204.214 34.2 203.094 34.2C202.254 34.2 201.414 34.1267 200.574 33.98C199.734 33.82 198.954 33.5933 198.234 33.3C197.514 32.9933 196.894 32.6267 196.374 32.2L198.214 29.14C198.601 29.4467 199.067 29.7267 199.614 29.98C200.161 30.22 200.727 30.4133 201.314 30.56C201.901 30.7067 202.447 30.78 202.954 30.78C203.274 30.78 203.527 30.7533 203.714 30.7C203.901 30.6467 204.027 30.58 204.094 30.5C204.174 30.4067 204.214 30.3 204.214 30.18C204.214 29.9933 204.134 29.8533 203.974 29.76C203.827 29.6667 203.554 29.5733 203.154 29.48L201.154 29.04C200.447 28.88 199.774 28.6667 199.134 28.4C198.494 28.1333 197.974 27.7467 197.574 27.24C197.174 26.72 196.974 26.02 196.974 25.14C196.974 24.2333 197.214 23.44 197.694 22.76C198.187 22.08 198.894 21.5533 199.814 21.18C200.747 20.7933 201.874 20.6 203.194 20.6ZM213.404 29.88C214.19 29.88 214.797 30.0667 215.224 30.44C215.65 30.8133 215.864 31.34 215.864 32.02C215.864 32.7 215.65 33.2267 215.224 33.6C214.797 33.9733 214.19 34.16 213.404 34.16C212.63 34.16 212.024 33.9733 211.584 33.6C211.157 33.2267 210.944 32.7 210.944 32.02C210.944 31.34 211.157 30.8133 211.584 30.44C212.024 30.0667 212.63 29.88 213.404 29.88ZM232.023 34H227.263L226.663 31.48H223.103L222.483 34H217.843L222.123 20.8H227.723L232.023 34ZM223.803 28.58H225.983L224.903 24L223.803 28.58Z" fill="#39332E"/>
<path d="M95.512 53V43.76H101.994V44.81H96.632V47.792H100.804V48.842H96.632V51.95H102.204V53H95.512ZM107.45 53.14C106.768 53.14 106.138 52.9953 105.56 52.706C104.99 52.4167 104.552 52.006 104.244 51.474L105.196 50.788C105.401 51.2173 105.7 51.5533 106.092 51.796C106.493 52.0387 106.974 52.16 107.534 52.16C108.028 52.16 108.416 52.0667 108.696 51.88C108.976 51.684 109.116 51.432 109.116 51.124C109.116 50.928 109.05 50.7507 108.92 50.592C108.798 50.424 108.56 50.3027 108.206 50.228L106.526 49.878C105.844 49.738 105.354 49.5047 105.056 49.178C104.766 48.8513 104.622 48.4453 104.622 47.96C104.622 47.5773 104.729 47.2273 104.944 46.91C105.168 46.5927 105.48 46.3407 105.882 46.154C106.292 45.958 106.773 45.86 107.324 45.86C108.014 45.86 108.598 45.9953 109.074 46.266C109.55 46.5367 109.904 46.9193 110.138 47.414L109.2 48.03C109.041 47.6193 108.784 47.3207 108.43 47.134C108.075 46.938 107.706 46.84 107.324 46.84C106.988 46.84 106.698 46.8867 106.456 46.98C106.222 47.0733 106.04 47.204 105.91 47.372C105.788 47.5307 105.728 47.7127 105.728 47.918C105.728 48.1233 105.798 48.3147 105.938 48.492C106.078 48.66 106.339 48.7813 106.722 48.856L108.472 49.22C109.125 49.3507 109.582 49.5653 109.844 49.864C110.105 50.1627 110.236 50.5267 110.236 50.956C110.236 51.3947 110.119 51.782 109.886 52.118C109.652 52.4447 109.326 52.6967 108.906 52.874C108.486 53.0513 108 53.14 107.45 53.14ZM114.665 44.012V51.068C114.665 51.4133 114.763 51.67 114.959 51.838C115.155 52.006 115.407 52.09 115.715 52.09C115.985 52.09 116.219 52.0433 116.415 51.95C116.611 51.8567 116.788 51.7307 116.947 51.572L117.339 52.51C117.124 52.706 116.867 52.86 116.569 52.972C116.279 53.084 115.943 53.14 115.561 53.14C115.206 53.14 114.875 53.0793 114.567 52.958C114.259 52.8273 114.011 52.6267 113.825 52.356C113.647 52.076 113.554 51.712 113.545 51.264V44.32L114.665 44.012ZM117.213 46V46.966H112.145V46H117.213ZM122.112 53.14C121.664 53.14 121.239 53.056 120.838 52.888C120.446 52.72 120.124 52.4493 119.872 52.076C119.629 51.6933 119.508 51.1987 119.508 50.592V46H120.628V50.298C120.628 51.0073 120.782 51.4973 121.09 51.768C121.398 52.0293 121.832 52.16 122.392 52.16C122.653 52.16 122.91 52.118 123.162 52.034C123.414 51.9407 123.638 51.8007 123.834 51.614C124.039 51.418 124.198 51.1707 124.31 50.872C124.431 50.5733 124.492 50.2187 124.492 49.808V46H125.612V53H124.632L124.562 51.936C124.319 52.356 123.988 52.664 123.568 52.86C123.157 53.0467 122.672 53.14 122.112 53.14ZM131.648 53.14C131.07 53.14 130.538 52.9953 130.052 52.706C129.567 52.4167 129.18 52.0013 128.89 51.46C128.601 50.9093 128.456 50.256 128.456 49.5C128.456 48.7253 128.61 48.0673 128.918 47.526C129.226 46.9847 129.632 46.574 130.136 46.294C130.64 46.0047 131.182 45.86 131.76 45.86C132.339 45.86 132.838 46.0093 133.258 46.308C133.688 46.6067 133.972 47.0033 134.112 47.498L133.972 47.596V42.78H135.092V53H134.112L134.014 51.306L134.168 51.222C134.103 51.6327 133.944 51.9827 133.692 52.272C133.45 52.552 133.146 52.7667 132.782 52.916C132.428 53.0653 132.05 53.14 131.648 53.14ZM131.76 52.16C132.208 52.16 132.596 52.048 132.922 51.824C133.258 51.6 133.515 51.2827 133.692 50.872C133.879 50.452 133.972 49.962 133.972 49.402C133.972 48.87 133.879 48.4127 133.692 48.03C133.515 47.6473 133.263 47.3533 132.936 47.148C132.619 46.9427 132.246 46.84 131.816 46.84C131.107 46.84 130.556 47.0827 130.164 47.568C129.772 48.0533 129.576 48.6973 129.576 49.5C129.576 50.3027 129.768 50.9467 130.15 51.432C130.533 51.9173 131.07 52.16 131.76 52.16ZM141.294 45.86C141.956 45.86 142.54 46.0047 143.044 46.294C143.557 46.5833 143.958 47.0033 144.248 47.554C144.537 48.0953 144.682 48.744 144.682 49.5C144.682 50.256 144.537 50.9093 144.248 51.46C143.958 52.0013 143.557 52.4167 143.044 52.706C142.54 52.9953 141.956 53.14 141.294 53.14C140.64 53.14 140.057 52.9953 139.544 52.706C139.03 52.4167 138.629 52.0013 138.34 51.46C138.05 50.9093 137.906 50.256 137.906 49.5C137.906 48.744 138.05 48.0953 138.34 47.554C138.629 47.0033 139.03 46.5833 139.544 46.294C140.057 46.0047 140.64 45.86 141.294 45.86ZM141.294 46.826C140.818 46.826 140.412 46.9333 140.076 47.148C139.74 47.3627 139.478 47.6707 139.292 48.072C139.114 48.464 139.026 48.94 139.026 49.5C139.026 50.0507 139.114 50.5267 139.292 50.928C139.478 51.3293 139.74 51.6373 140.076 51.852C140.412 52.0667 140.818 52.174 141.294 52.174C141.77 52.174 142.176 52.0667 142.512 51.852C142.848 51.6373 143.104 51.3293 143.282 50.928C143.468 50.5267 143.562 50.0507 143.562 49.5C143.562 48.94 143.468 48.464 143.282 48.072C143.104 47.6707 142.848 47.3627 142.512 47.148C142.176 46.9333 141.77 46.826 141.294 46.826ZM150.01 53.14C149.329 53.14 148.699 52.9953 148.12 52.706C147.551 52.4167 147.112 52.006 146.804 51.474L147.756 50.788C147.962 51.2173 148.26 51.5533 148.652 51.796C149.054 52.0387 149.534 52.16 150.094 52.16C150.589 52.16 150.976 52.0667 151.256 51.88C151.536 51.684 151.676 51.432 151.676 51.124C151.676 50.928 151.611 50.7507 151.48 50.592C151.359 50.424 151.121 50.3027 150.766 50.228L149.086 49.878C148.405 49.738 147.915 49.5047 147.616 49.178C147.327 48.8513 147.182 48.4453 147.182 47.96C147.182 47.5773 147.29 47.2273 147.504 46.91C147.728 46.5927 148.041 46.3407 148.442 46.154C148.853 45.958 149.334 45.86 149.884 45.86C150.575 45.86 151.158 45.9953 151.634 46.266C152.11 46.5367 152.465 46.9193 152.698 47.414L151.76 48.03C151.602 47.6193 151.345 47.3207 150.99 47.134C150.636 46.938 150.267 46.84 149.884 46.84C149.548 46.84 149.259 46.8867 149.016 46.98C148.783 47.0733 148.601 47.204 148.47 47.372C148.349 47.5307 148.288 47.7127 148.288 47.918C148.288 48.1233 148.358 48.3147 148.498 48.492C148.638 48.66 148.9 48.7813 149.282 48.856L151.032 49.22C151.686 49.3507 152.143 49.5653 152.404 49.864C152.666 50.1627 152.796 50.5267 152.796 50.956C152.796 51.3947 152.68 51.782 152.446 52.118C152.213 52.4447 151.886 52.6967 151.466 52.874C151.046 53.0513 150.561 53.14 150.01 53.14ZM163.971 53.14C163.308 53.14 162.715 52.9953 162.193 52.706C161.679 52.4167 161.278 52.0013 160.989 51.46C160.699 50.9093 160.555 50.256 160.555 49.5C160.555 48.744 160.699 48.0953 160.989 47.554C161.278 47.0033 161.675 46.5833 162.179 46.294C162.683 46.0047 163.257 45.86 163.901 45.86C164.554 45.86 165.109 46 165.567 46.28C166.033 46.56 166.388 46.9427 166.631 47.428C166.873 47.904 166.995 48.4407 166.995 49.038C166.995 49.1967 166.99 49.3413 166.981 49.472C166.971 49.6027 166.957 49.7193 166.939 49.822H161.283V48.828H166.449L165.875 48.94C165.875 48.268 165.688 47.75 165.315 47.386C164.951 47.022 164.47 46.84 163.873 46.84C163.415 46.84 163.019 46.9473 162.683 47.162C162.356 47.3673 162.099 47.6707 161.913 48.072C161.735 48.464 161.647 48.94 161.647 49.5C161.647 50.0507 161.74 50.5267 161.927 50.928C162.113 51.3293 162.375 51.6373 162.711 51.852C163.056 52.0573 163.467 52.16 163.943 52.16C164.456 52.16 164.871 52.062 165.189 51.866C165.515 51.67 165.777 51.404 165.973 51.068L166.855 51.586C166.677 51.9033 166.449 52.1787 166.169 52.412C165.898 52.6453 165.576 52.8273 165.203 52.958C164.839 53.0793 164.428 53.14 163.971 53.14ZM178.768 43.76C179.393 43.76 179.935 43.8767 180.392 44.11C180.859 44.334 181.223 44.656 181.484 45.076C181.745 45.496 181.876 45.9953 181.876 46.574C181.876 47.1527 181.745 47.652 181.484 48.072C181.223 48.492 180.859 48.8187 180.392 49.052C179.935 49.276 179.393 49.388 178.768 49.388H176.626V53H175.506V43.76H178.768ZM178.6 48.338C179.328 48.338 179.86 48.1887 180.196 47.89C180.532 47.582 180.7 47.1433 180.7 46.574C180.7 45.9953 180.532 45.5567 180.196 45.258C179.86 44.9593 179.328 44.81 178.6 44.81H176.626V48.338H178.6ZM184.541 53V46H185.451L185.605 47.148C185.801 46.7187 186.086 46.3967 186.459 46.182C186.842 45.9673 187.304 45.86 187.845 45.86C187.966 45.86 188.097 45.8693 188.237 45.888C188.386 45.9067 188.512 45.944 188.615 46L188.419 47.022C188.316 46.9847 188.204 46.9567 188.083 46.938C187.962 46.9193 187.789 46.91 187.565 46.91C187.276 46.91 186.982 46.994 186.683 47.162C186.394 47.33 186.151 47.5867 185.955 47.932C185.759 48.268 185.661 48.6973 185.661 49.22V53H184.541ZM193.635 45.86C194.298 45.86 194.881 46.0047 195.385 46.294C195.898 46.5833 196.3 47.0033 196.589 47.554C196.878 48.0953 197.023 48.744 197.023 49.5C197.023 50.256 196.878 50.9093 196.589 51.46C196.3 52.0013 195.898 52.4167 195.385 52.706C194.881 52.9953 194.298 53.14 193.635 53.14C192.982 53.14 192.398 52.9953 191.885 52.706C191.372 52.4167 190.97 52.0013 190.681 51.46C190.392 50.9093 190.247 50.256 190.247 49.5C190.247 48.744 190.392 48.0953 190.681 47.554C190.97 47.0033 191.372 46.5833 191.885 46.294C192.398 46.0047 192.982 45.86 193.635 45.86ZM193.635 46.826C193.159 46.826 192.753 46.9333 192.417 47.148C192.081 47.3627 191.82 47.6707 191.633 48.072C191.456 48.464 191.367 48.94 191.367 49.5C191.367 50.0507 191.456 50.5267 191.633 50.928C191.82 51.3293 192.081 51.6373 192.417 51.852C192.753 52.0667 193.159 52.174 193.635 52.174C194.111 52.174 194.517 52.0667 194.853 51.852C195.189 51.6373 195.446 51.3293 195.623 50.928C195.81 50.5267 195.903 50.0507 195.903 49.5C195.903 48.94 195.81 48.464 195.623 48.072C195.446 47.6707 195.189 47.3627 194.853 47.148C194.517 46.9333 194.111 46.826 193.635 46.826ZM200.392 44.656C200.14 44.656 199.934 44.5813 199.776 44.432C199.626 44.2733 199.552 44.068 199.552 43.816C199.552 43.564 199.626 43.3633 199.776 43.214C199.934 43.0553 200.14 42.976 200.392 42.976C200.644 42.976 200.844 43.0553 200.994 43.214C201.152 43.3633 201.232 43.564 201.232 43.816C201.232 44.068 201.152 44.2733 200.994 44.432C200.844 44.5813 200.644 44.656 200.392 44.656ZM200.952 46V53.714C200.952 54.2927 200.84 54.75 200.616 55.086C200.392 55.422 200.116 55.66 199.79 55.8C199.463 55.94 199.141 56.01 198.824 56.01C198.534 56.01 198.268 55.9633 198.026 55.87C197.783 55.786 197.582 55.6787 197.424 55.548L197.662 54.484C197.792 54.6053 197.956 54.708 198.152 54.792C198.348 54.876 198.567 54.918 198.81 54.918C199.108 54.918 199.351 54.82 199.538 54.624C199.734 54.428 199.832 54.0873 199.832 53.602V46H200.952ZM207.176 53.14C206.514 53.14 205.921 52.9953 205.398 52.706C204.885 52.4167 204.484 52.0013 204.194 51.46C203.905 50.9093 203.76 50.256 203.76 49.5C203.76 48.744 203.905 48.0953 204.194 47.554C204.484 47.0033 204.88 46.5833 205.384 46.294C205.888 46.0047 206.462 45.86 207.106 45.86C207.76 45.86 208.315 46 208.772 46.28C209.239 46.56 209.594 46.9427 209.836 47.428C210.079 47.904 210.2 48.4407 210.2 49.038C210.2 49.1967 210.196 49.3413 210.186 49.472C210.177 49.6027 210.163 49.7193 210.144 49.822H204.488V48.828H209.654L209.08 48.94C209.08 48.268 208.894 47.75 208.52 47.386C208.156 47.022 207.676 46.84 207.078 46.84C206.621 46.84 206.224 46.9473 205.888 47.162C205.562 47.3673 205.305 47.6707 205.118 48.072C204.941 48.464 204.852 48.94 204.852 49.5C204.852 50.0507 204.946 50.5267 205.132 50.928C205.319 51.3293 205.58 51.6373 205.916 51.852C206.262 52.0573 206.672 52.16 207.148 52.16C207.662 52.16 208.077 52.062 208.394 51.866C208.721 51.67 208.982 51.404 209.178 51.068L210.06 51.586C209.883 51.9033 209.654 52.1787 209.374 52.412C209.104 52.6453 208.782 52.8273 208.408 52.958C208.044 53.0793 207.634 53.14 207.176 53.14ZM214.477 44.012V51.068C214.477 51.4133 214.575 51.67 214.771 51.838C214.967 52.006 215.219 52.09 215.527 52.09C215.798 52.09 216.031 52.0433 216.227 51.95C216.423 51.8567 216.601 51.7307 216.759 51.572L217.151 52.51C216.937 52.706 216.68 52.86 216.381 52.972C216.092 53.084 215.756 53.14 215.373 53.14C215.019 53.14 214.687 53.0793 214.379 52.958C214.071 52.8273 213.824 52.6267 213.637 52.356C213.46 52.076 213.367 51.712 213.357 51.264V44.32L214.477 44.012ZM217.025 46V46.966H211.957V46H217.025ZM222.289 45.86C222.951 45.86 223.535 46.0047 224.039 46.294C224.552 46.5833 224.953 47.0033 225.243 47.554C225.532 48.0953 225.677 48.744 225.677 49.5C225.677 50.256 225.532 50.9093 225.243 51.46C224.953 52.0013 224.552 52.4167 224.039 52.706C223.535 52.9953 222.951 53.14 222.289 53.14C221.635 53.14 221.052 52.9953 220.539 52.706C220.025 52.4167 219.624 52.0013 219.335 51.46C219.045 50.9093 218.901 50.256 218.901 49.5C218.901 48.744 219.045 48.0953 219.335 47.554C219.624 47.0033 220.025 46.5833 220.539 46.294C221.052 46.0047 221.635 45.86 222.289 45.86ZM222.289 46.826C221.813 46.826 221.407 46.9333 221.071 47.148C220.735 47.3627 220.473 47.6707 220.287 48.072C220.109 48.464 220.021 48.94 220.021 49.5C220.021 50.0507 220.109 50.5267 220.287 50.928C220.473 51.3293 220.735 51.6373 221.071 51.852C221.407 52.0667 221.813 52.174 222.289 52.174C222.765 52.174 223.171 52.0667 223.507 51.852C223.843 51.6373 224.099 51.3293 224.277 50.928C224.463 50.5267 224.557 50.0507 224.557 49.5C224.557 48.94 224.463 48.464 224.277 48.072C224.099 47.6707 223.843 47.3627 223.507 47.148C223.171 46.9333 222.765 46.826 222.289 46.826ZM231.005 53.14C230.324 53.14 229.694 52.9953 229.115 52.706C228.546 52.4167 228.107 52.006 227.799 51.474L228.751 50.788C228.957 51.2173 229.255 51.5533 229.647 51.796C230.049 52.0387 230.529 52.16 231.089 52.16C231.584 52.16 231.971 52.0667 232.251 51.88C232.531 51.684 232.671 51.432 232.671 51.124C232.671 50.928 232.606 50.7507 232.475 50.592C232.354 50.424 232.116 50.3027 231.761 50.228L230.081 49.878C229.4 49.738 228.91 49.5047 228.611 49.178C228.322 48.8513 228.177 48.4453 228.177 47.96C228.177 47.5773 228.285 47.2273 228.499 46.91C228.723 46.5927 229.036 46.3407 229.437 46.154C229.848 45.958 230.329 45.86 230.879 45.86C231.57 45.86 232.153 45.9953 232.629 46.266C233.105 46.5367 233.46 46.9193 233.693 47.414L232.755 48.03C232.597 47.6193 232.34 47.3207 231.985 47.134C231.631 46.938 231.262 46.84 230.879 46.84C230.543 46.84 230.254 46.8867 230.011 46.98C229.778 47.0733 229.596 47.204 229.465 47.372C229.344 47.5307 229.283 47.7127 229.283 47.918C229.283 48.1233 229.353 48.3147 229.493 48.492C229.633 48.66 229.895 48.7813 230.277 48.856L232.027 49.22C232.681 49.3507 233.138 49.5653 233.399 49.864C233.661 50.1627 233.791 50.5267 233.791 50.956C233.791 51.3947 233.675 51.782 233.441 52.118C233.208 52.4447 232.881 52.6967 232.461 52.874C232.041 53.0513 231.556 53.14 231.005 53.14ZM244.77 53.14C244.191 53.14 243.659 52.9953 243.174 52.706C242.688 52.4167 242.301 52.0013 242.012 51.46C241.722 50.9093 241.578 50.256 241.578 49.5C241.578 48.7253 241.732 48.0673 242.04 47.526C242.348 46.9847 242.754 46.574 243.258 46.294C243.762 46.0047 244.303 45.86 244.882 45.86C245.46 45.86 245.96 46.0093 246.38 46.308C246.809 46.6067 247.094 47.0033 247.234 47.498L247.094 47.596V42.78H248.214V53H247.234L247.136 51.306L247.29 51.222C247.224 51.6327 247.066 51.9827 246.814 52.272C246.571 52.552 246.268 52.7667 245.904 52.916C245.549 53.0653 245.171 53.14 244.77 53.14ZM244.882 52.16C245.33 52.16 245.717 52.048 246.044 51.824C246.38 51.6 246.636 51.2827 246.814 50.872C247 50.452 247.094 49.962 247.094 49.402C247.094 48.87 247 48.4127 246.814 48.03C246.636 47.6473 246.384 47.3533 246.058 47.148C245.74 46.9427 245.367 46.84 244.938 46.84C244.228 46.84 243.678 47.0827 243.286 47.568C242.894 48.0533 242.698 48.6973 242.698 49.5C242.698 50.3027 242.889 50.9467 243.272 51.432C243.654 51.9173 244.191 52.16 244.882 52.16ZM254.443 53.14C253.78 53.14 253.188 52.9953 252.665 52.706C252.152 52.4167 251.75 52.0013 251.461 51.46C251.172 50.9093 251.027 50.256 251.027 49.5C251.027 48.744 251.172 48.0953 251.461 47.554C251.75 47.0033 252.147 46.5833 252.651 46.294C253.155 46.0047 253.729 45.86 254.373 45.86C255.026 45.86 255.582 46 256.039 46.28C256.506 46.56 256.86 46.9427 257.103 47.428C257.346 47.904 257.467 48.4407 257.467 49.038C257.467 49.1967 257.462 49.3413 257.453 49.472C257.444 49.6027 257.43 49.7193 257.411 49.822H251.755V48.828H256.921L256.347 48.94C256.347 48.268 256.16 47.75 255.787 47.386C255.423 47.022 254.942 46.84 254.345 46.84C253.888 46.84 253.491 46.9473 253.155 47.162C252.828 47.3673 252.572 47.6707 252.385 48.072C252.208 48.464 252.119 48.94 252.119 49.5C252.119 50.0507 252.212 50.5267 252.399 50.928C252.586 51.3293 252.847 51.6373 253.183 51.852C253.528 52.0573 253.939 52.16 254.415 52.16C254.928 52.16 255.344 52.062 255.661 51.866C255.988 51.67 256.249 51.404 256.445 51.068L257.327 51.586C257.15 51.9033 256.921 52.1787 256.641 52.412C256.37 52.6453 256.048 52.8273 255.675 52.958C255.311 53.0793 254.9 53.14 254.443 53.14ZM265.978 53V43.76H272.46V44.81H267.098V47.792H271.27V48.842H267.098V51.95H272.67V53H265.978ZM275.396 53V46H276.376L276.474 47.568L276.292 47.414C276.441 47.0407 276.642 46.742 276.894 46.518C277.146 46.2847 277.435 46.1167 277.762 46.014C278.098 45.9113 278.443 45.86 278.798 45.86C279.302 45.86 279.759 45.958 280.17 46.154C280.581 46.3407 280.907 46.63 281.15 47.022C281.402 47.414 281.528 47.9133 281.528 48.52V53H280.408V48.912C280.408 48.1373 280.24 47.6007 279.904 47.302C279.577 46.994 279.171 46.84 278.686 46.84C278.35 46.84 278.014 46.9193 277.678 47.078C277.342 47.2367 277.062 47.4933 276.838 47.848C276.623 48.2027 276.516 48.6787 276.516 49.276V53H275.396ZM290.658 44.712L290.91 45.706C290.901 45.706 290.887 45.706 290.868 45.706C290.849 45.706 290.831 45.706 290.812 45.706C290.355 45.706 290 45.7993 289.748 45.986C289.505 46.1633 289.384 46.4527 289.384 46.854L288.698 46.504C288.698 46.14 288.782 45.8227 288.95 45.552C289.118 45.2813 289.347 45.076 289.636 44.936C289.925 44.7867 290.243 44.712 290.588 44.712C290.597 44.712 290.607 44.712 290.616 44.712C290.635 44.712 290.649 44.712 290.658 44.712ZM288.53 52.104C289.193 52.104 289.711 52.258 290.084 52.566C290.457 52.8647 290.644 53.266 290.644 53.77C290.644 54.2273 290.49 54.624 290.182 54.96C289.883 55.296 289.477 55.5527 288.964 55.73C288.46 55.9167 287.891 56.01 287.256 56.01C286.155 56.01 285.329 55.8233 284.778 55.45C284.237 55.0767 283.966 54.6287 283.966 54.106C283.966 53.7327 284.087 53.3967 284.33 53.098C284.582 52.8087 285.002 52.6453 285.59 52.608L285.492 52.818C285.175 52.734 284.904 52.594 284.68 52.398C284.465 52.1927 284.358 51.8987 284.358 51.516C284.358 51.1333 284.498 50.8067 284.778 50.536C285.067 50.256 285.492 50.0833 286.052 50.018L286.794 50.396H286.654C286.197 50.4427 285.87 50.5593 285.674 50.746C285.487 50.9233 285.394 51.1193 285.394 51.334C285.394 51.5953 285.487 51.7913 285.674 51.922C285.87 52.0433 286.141 52.104 286.486 52.104H288.53ZM287.242 55.072C287.783 55.072 288.227 55.016 288.572 54.904C288.927 54.792 289.188 54.6473 289.356 54.47C289.524 54.2927 289.608 54.1013 289.608 53.896C289.608 53.644 289.505 53.4433 289.3 53.294C289.104 53.1447 288.745 53.07 288.222 53.07H286.066C285.767 53.07 285.515 53.1447 285.31 53.294C285.105 53.4527 285.002 53.6673 285.002 53.938C285.002 54.2833 285.198 54.5587 285.59 54.764C285.991 54.9693 286.542 55.072 287.242 55.072ZM287.144 45.86C287.704 45.86 288.199 45.9627 288.628 46.168C289.067 46.364 289.407 46.6393 289.65 46.994C289.893 47.3487 290.014 47.7593 290.014 48.226C290.014 48.6833 289.893 49.094 289.65 49.458C289.407 49.8127 289.067 50.0927 288.628 50.298C288.199 50.494 287.704 50.592 287.144 50.592C286.22 50.592 285.511 50.3727 285.016 49.934C284.521 49.486 284.274 48.9167 284.274 48.226C284.274 47.7593 284.395 47.3487 284.638 46.994C284.89 46.6393 285.231 46.364 285.66 46.168C286.089 45.9627 286.584 45.86 287.144 45.86ZM287.144 46.77C286.659 46.77 286.253 46.9053 285.926 47.176C285.599 47.4373 285.436 47.7873 285.436 48.226C285.436 48.6553 285.599 49.0053 285.926 49.276C286.253 49.5467 286.659 49.682 287.144 49.682C287.629 49.682 288.035 49.5467 288.362 49.276C288.689 49.0053 288.852 48.6553 288.852 48.226C288.852 47.7873 288.689 47.4373 288.362 47.176C288.035 46.9053 287.629 46.77 287.144 46.77ZM295.841 53.14C295.179 53.14 294.586 52.9953 294.063 52.706C293.55 52.4167 293.149 52.0013 292.859 51.46C292.57 50.9093 292.425 50.256 292.425 49.5C292.425 48.744 292.57 48.0953 292.859 47.554C293.149 47.0033 293.545 46.5833 294.049 46.294C294.553 46.0047 295.127 45.86 295.771 45.86C296.425 45.86 296.98 46 297.437 46.28C297.904 46.56 298.259 46.9427 298.501 47.428C298.744 47.904 298.865 48.4407 298.865 49.038C298.865 49.1967 298.861 49.3413 298.851 49.472C298.842 49.6027 298.828 49.7193 298.809 49.822H293.153V48.828H298.319L297.745 48.94C297.745 48.268 297.559 47.75 297.185 47.386C296.821 47.022 296.341 46.84 295.743 46.84C295.286 46.84 294.889 46.9473 294.553 47.162C294.227 47.3673 293.97 47.6707 293.783 48.072C293.606 48.464 293.517 48.94 293.517 49.5C293.517 50.0507 293.611 50.5267 293.797 50.928C293.984 51.3293 294.245 51.6373 294.581 51.852C294.927 52.0573 295.337 52.16 295.813 52.16C296.327 52.16 296.742 52.062 297.059 51.866C297.386 51.67 297.647 51.404 297.843 51.068L298.725 51.586C298.548 51.9033 298.319 52.1787 298.039 52.412C297.769 52.6453 297.447 52.8273 297.073 52.958C296.709 53.0793 296.299 53.14 295.841 53.14ZM301.695 53V46H302.675L302.773 47.568L302.591 47.414C302.741 47.0407 302.941 46.742 303.193 46.518C303.445 46.2847 303.735 46.1167 304.061 46.014C304.397 45.9113 304.743 45.86 305.097 45.86C305.601 45.86 306.059 45.958 306.469 46.154C306.88 46.3407 307.207 46.63 307.449 47.022C307.701 47.414 307.827 47.9133 307.827 48.52V53H306.707V48.912C306.707 48.1373 306.539 47.6007 306.203 47.302C305.877 46.994 305.471 46.84 304.985 46.84C304.649 46.84 304.313 46.9193 303.977 47.078C303.641 47.2367 303.361 47.4933 303.137 47.848C302.923 48.2027 302.815 48.6787 302.815 49.276V53H301.695ZM311.063 53V42.78H312.183V47.05C312.426 46.63 312.748 46.3267 313.149 46.14C313.551 45.9533 313.989 45.86 314.465 45.86C314.969 45.86 315.427 45.958 315.837 46.154C316.248 46.3407 316.575 46.63 316.817 47.022C317.069 47.414 317.195 47.9133 317.195 48.52V53H316.075V48.912C316.075 48.1373 315.907 47.6007 315.571 47.302C315.245 46.994 314.839 46.84 314.353 46.84C314.017 46.84 313.681 46.9193 313.345 47.078C313.009 47.2367 312.729 47.498 312.505 47.862C312.291 48.2167 312.183 48.6927 312.183 49.29V53H311.063ZM324.519 48.478C324.519 47.9553 324.379 47.554 324.099 47.274C323.819 46.9847 323.423 46.84 322.909 46.84C322.424 46.84 322.013 46.9473 321.677 47.162C321.341 47.3673 321.094 47.7033 320.935 48.17L320.025 47.61C320.212 47.0873 320.557 46.6673 321.061 46.35C321.565 46.0233 322.191 45.86 322.937 45.86C323.441 45.86 323.899 45.9487 324.309 46.126C324.72 46.294 325.042 46.5553 325.275 46.91C325.518 47.2553 325.639 47.7033 325.639 48.254V51.642C325.639 51.978 325.817 52.146 326.171 52.146C326.349 52.146 326.521 52.1227 326.689 52.076L326.633 52.958C326.447 53.0513 326.204 53.098 325.905 53.098C325.635 53.098 325.392 53.0467 325.177 52.944C324.963 52.8413 324.795 52.6873 324.673 52.482C324.552 52.2673 324.491 52.0013 324.491 51.684V51.544L324.771 51.586C324.659 51.95 324.468 52.2487 324.197 52.482C323.927 52.706 323.623 52.874 323.287 52.986C322.951 53.0887 322.62 53.14 322.293 53.14C321.883 53.14 321.5 53.07 321.145 52.93C320.791 52.79 320.506 52.58 320.291 52.3C320.086 52.0107 319.983 51.656 319.983 51.236C319.983 50.7133 320.156 50.284 320.501 49.948C320.856 49.6027 321.346 49.3693 321.971 49.248L324.743 48.702V49.626L322.489 50.088C322.032 50.1813 321.691 50.312 321.467 50.48C321.243 50.648 321.131 50.8813 321.131 51.18C321.131 51.4693 321.243 51.7073 321.467 51.894C321.701 52.0713 322.027 52.16 322.447 52.16C322.718 52.16 322.975 52.1273 323.217 52.062C323.469 51.9873 323.693 51.88 323.889 51.74C324.085 51.5907 324.239 51.4087 324.351 51.194C324.463 50.97 324.519 50.7087 324.519 50.41V48.478ZM329.061 53V46H329.971L330.125 47.148C330.321 46.7187 330.606 46.3967 330.979 46.182C331.362 45.9673 331.824 45.86 332.365 45.86C332.486 45.86 332.617 45.8693 332.757 45.888C332.906 45.9067 333.032 45.944 333.135 46L332.939 47.022C332.836 46.9847 332.724 46.9567 332.603 46.938C332.482 46.9193 332.309 46.91 332.085 46.91C331.796 46.91 331.502 46.994 331.203 47.162C330.914 47.33 330.671 47.5867 330.475 47.932C330.279 48.268 330.181 48.6973 330.181 49.22V53H329.061ZM336.036 44.656C335.784 44.656 335.578 44.5813 335.42 44.432C335.27 44.2733 335.196 44.068 335.196 43.816C335.196 43.564 335.27 43.3633 335.42 43.214C335.578 43.0553 335.784 42.976 336.036 42.976C336.288 42.976 336.488 43.0553 336.638 43.214C336.796 43.3633 336.876 43.564 336.876 43.816C336.876 44.068 336.796 44.2733 336.638 44.432C336.488 44.5813 336.288 44.656 336.036 44.656ZM336.596 46V53H335.476V46H336.596ZM343.983 48.478C343.983 47.9553 343.843 47.554 343.563 47.274C343.283 46.9847 342.886 46.84 342.373 46.84C341.887 46.84 341.477 46.9473 341.141 47.162C340.805 47.3673 340.557 47.7033 340.399 48.17L339.489 47.61C339.675 47.0873 340.021 46.6673 340.525 46.35C341.029 46.0233 341.654 45.86 342.401 45.86C342.905 45.86 343.362 45.9487 343.773 46.126C344.183 46.294 344.505 46.5553 344.739 46.91C344.981 47.2553 345.103 47.7033 345.103 48.254V51.642C345.103 51.978 345.28 52.146 345.635 52.146C345.812 52.146 345.985 52.1227 346.153 52.076L346.097 52.958C345.91 53.0513 345.667 53.098 345.369 53.098C345.098 53.098 344.855 53.0467 344.641 52.944C344.426 52.8413 344.258 52.6873 344.137 52.482C344.015 52.2673 343.955 52.0013 343.955 51.684V51.544L344.235 51.586C344.123 51.95 343.931 52.2487 343.661 52.482C343.39 52.706 343.087 52.874 342.751 52.986C342.415 53.0887 342.083 53.14 341.757 53.14C341.346 53.14 340.963 53.07 340.609 52.93C340.254 52.79 339.969 52.58 339.755 52.3C339.549 52.0107 339.447 51.656 339.447 51.236C339.447 50.7133 339.619 50.284 339.965 49.948C340.319 49.6027 340.809 49.3693 341.435 49.248L344.207 48.702V49.626L341.953 50.088C341.495 50.1813 341.155 50.312 340.931 50.48C340.707 50.648 340.595 50.8813 340.595 51.18C340.595 51.4693 340.707 51.7073 340.931 51.894C341.164 52.0713 341.491 52.16 341.911 52.16C342.181 52.16 342.438 52.1273 342.681 52.062C342.933 51.9873 343.157 51.88 343.353 51.74C343.549 51.5907 343.703 51.4087 343.815 51.194C343.927 50.97 343.983 50.7087 343.983 50.41V48.478Z" fill="#39332E"/>
</svg>
