<svg width="168" height="28" viewBox="0 0 168 28" fill="none" xmlns="http://www.w3.org/2000/svg">
<path d="M42.25 1H1V13.25H12.25C12.25 9 14.5 6.5 18 6.25H42.25V1Z" stroke="url(#paint0_linear_589_4268)" stroke-width="1.5"/>
<path d="M12.25 15H1V27H42.25V21.5H18C14.75 20.75 13.0795 19.2337 12.25 15Z" stroke="url(#paint1_linear_589_4268)" stroke-width="1.5"/>
<circle cx="20.5" cy="14" r="5.25" stroke="url(#paint2_linear_589_4268)" stroke-width="1.5"/>
<path d="M52.5625 23V20.7852L54.3672 20.4219V8.52734L52.5625 8.16406V5.9375H65.9922V10.6953H63.1445L63.0156 8.82031H58.1172V12.7344H63.7305V15.6289H58.1172V20.1172H63.2617L63.3906 18.1719H66.2148V23H52.5625ZM69.0906 23V20.7852L70.8719 20.4219V8.52734L69.0906 8.16406V5.9375H70.8719H74.6922L81.8406 17.3398L81.9109 17.3281V8.52734L79.6961 8.16406V5.9375H85.2508H87.0438V8.16406L85.2508 8.52734V23H81.5828L74.282 11.7734H74.2117V20.4219L76.4383 20.7852V23H69.0906ZM97.3844 23.2461C95.7438 23.2461 94.2984 22.9102 93.0484 22.2383C91.7984 21.5586 90.8258 20.5898 90.1305 19.332C89.4352 18.0742 89.0875 16.5664 89.0875 14.8086V14.1406C89.0875 12.4922 89.4156 11.0352 90.0719 9.76953C90.7281 8.49609 91.6617 7.5 92.8727 6.78125C94.0914 6.05469 95.5367 5.69141 97.2086 5.69141C98.3805 5.69141 99.4859 5.85156 100.525 6.17188C101.572 6.49219 102.521 7.01172 103.373 7.73047V11.9844H100.619L100.244 9.42969C99.9781 9.25 99.6969 9.09375 99.4 8.96094C99.1031 8.82812 98.7828 8.72656 98.4391 8.65625C98.0953 8.58594 97.7242 8.55078 97.3258 8.55078C96.4039 8.55078 95.607 8.77344 94.9352 9.21875C94.2633 9.66406 93.7438 10.3008 93.3766 11.1289C93.0094 11.957 92.8258 12.9531 92.8258 14.1172V14.8086C92.8258 15.9336 93.0133 16.918 93.3883 17.7617C93.7711 18.5977 94.3102 19.2461 95.0055 19.707C95.7008 20.168 96.5094 20.3984 97.4313 20.3984C97.9156 20.3984 98.4 20.3477 98.8844 20.2461C99.3688 20.1367 99.8219 19.9961 100.244 19.8242L100.63 17.4219H103.384V21.5938C102.713 22.0469 101.865 22.4375 100.841 22.7656C99.8258 23.0859 98.6734 23.2461 97.3844 23.2461ZM105.92 23V20.7852L107.725 20.4219V8.52734L105.92 8.16406V5.9375H113.256V8.16406L111.463 8.52734V20.4219L113.256 20.7852V23H105.92ZM115.605 23V20.7852L117.409 20.4219V8.52734L115.605 8.16406V5.9375H117.409H123.257C125.335 5.9375 126.952 6.33203 128.109 7.12109C129.273 7.90234 129.855 9.07031 129.855 10.625C129.855 11.4219 129.652 12.1367 129.245 12.7695C128.847 13.3945 128.249 13.8672 127.452 14.1875C128.14 14.3359 128.702 14.5938 129.14 14.9609C129.585 15.3281 129.913 15.7734 130.124 16.2969C130.343 16.8125 130.452 17.375 130.452 17.9844C130.452 19.6328 129.905 20.8828 128.812 21.7344C127.718 22.5781 126.148 23 124.101 23H115.605ZM121.159 20.1406H124.101C124.96 20.1406 125.612 19.9609 126.058 19.6016C126.503 19.2344 126.726 18.6953 126.726 17.9844C126.726 17.4531 126.64 17.0117 126.468 16.6602C126.304 16.3008 126.046 16.0312 125.695 15.8516C125.343 15.6719 124.886 15.582 124.323 15.582H121.159V20.1406ZM121.159 13.0508H123.234C124.179 13.0508 124.894 12.8789 125.378 12.5352C125.862 12.1914 126.105 11.6797 126.105 11C126.105 10.2422 125.866 9.6875 125.39 9.33594C124.921 8.98438 124.21 8.80859 123.257 8.80859H121.159V13.0508ZM132.648 23V20.7852L134.453 20.4219V8.52734L132.648 8.16406V5.92578H140.887C142.215 5.92578 143.359 6.13672 144.32 6.55859C145.289 6.97266 146.031 7.57031 146.547 8.35156C147.07 9.125 147.332 10.0469 147.332 11.1172C147.332 12.1172 147.07 13.0312 146.547 13.8594C146.031 14.6797 145.312 15.332 144.391 15.8164C143.477 16.3008 142.426 16.543 141.238 16.543L138.203 16.5195V20.4219L139.996 20.7852V23H132.648ZM143.547 23L140.945 15.9688L144.273 14.9961L146.559 20.4219L148.094 20.7852V23H143.547ZM138.203 13.6367H140.875C141.773 13.6367 142.453 13.4414 142.914 13.0508C143.375 12.6523 143.605 12.0781 143.605 11.3281C143.605 10.5625 143.371 9.95312 142.902 9.5C142.441 9.03906 141.77 8.80859 140.887 8.80859H138.203V13.6367ZM150.255 23V20.7852L151.473 20.6094L156.735 5.9375H160.684L165.934 20.6094L167.141 20.7852V23H161.071V20.7852L162.22 20.5742L161.575 18.4648H155.821L155.2 20.5742L156.348 20.7852V23H150.255ZM156.665 15.7695H160.731L158.903 10.2383L158.727 9.6875H158.657L158.47 10.2852L156.665 15.7695Z" fill="url(#paint3_linear_589_4268)"/>
<defs>
<linearGradient id="paint0_linear_589_4268" x1="21.625" y1="1" x2="21.625" y2="27" gradientUnits="userSpaceOnUse">
<stop stop-color="#EFB367"/>
<stop offset="1" stop-color="#E2942F"/>
</linearGradient>
<linearGradient id="paint1_linear_589_4268" x1="21.625" y1="1" x2="21.625" y2="27" gradientUnits="userSpaceOnUse">
<stop stop-color="#EFB367"/>
<stop offset="1" stop-color="#E2942F"/>
</linearGradient>
<linearGradient id="paint2_linear_589_4268" x1="20.5" y1="8" x2="20.5" y2="20" gradientUnits="userSpaceOnUse">
<stop stop-color="#EFB367"/>
<stop offset="1" stop-color="#E2942F"/>
</linearGradient>
<linearGradient id="paint3_linear_589_4268" x1="110" y1="2" x2="110" y2="26" gradientUnits="userSpaceOnUse">
<stop offset="0.0572917" stop-color="#EFB367"/>
<stop offset="0.911458" stop-color="#E2942F"/>
</linearGradient>
</defs>
</svg>
